<svg xmlns="http://www.w3.org/2000/svg" viewBox="0 0 220 240">
  <style>
    .pixel {
      shape-rendering: crispEdges;
    }
    
    @keyframes tailWag {
      0%, 100% { transform: rotate(0deg); }
      50% { transform: rotate(4deg); }
    }
    
    @keyframes eyeBlink {
      0%, 95%, 100% { opacity: 1; }
      96%, 99% { opacity: 0; }
    }
    
    .tail { 
      animation: tailWag 2s ease-in-out infinite; 
      transform-origin: 55px 140px; 
    }
    
    .eyes {
      animation: eyeBlink 4s ease-in-out infinite;
    }
  </style>

  <!-- Dark brown outlines -->
  <g fill="#2D1211">
    <!-- Left Triangle Ear - moved down -->
    <rect x="45" y="30" width="10" height="10" class="pixel"/>
    <rect x="55" y="20" width="10" height="10" class="pixel"/>
    <rect x="65" y="10" width="10" height="10" class="pixel"/>
    <rect x="75" y="20" width="10" height="10" class="pixel"/>
    <rect x="85" y="30" width="10" height="10" class="pixel"/>
    
    <!-- Right Triangle Ear - moved down -->
    <rect x="135" y="30" width="10" height="10" class="pixel"/>
    <rect x="145" y="20" width="10" height="10" class="pixel"/>
    <rect x="155" y="10" width="10" height="10" class="pixel"/>
    <rect x="165" y="20" width="10" height="10" class="pixel"/>
    <rect x="175" y="30" width="10" height="10" class="pixel"/>
    
    <!-- Side outlines -->
    <rect x="40" y="40" width="10" height="60" class="pixel"/>
    <rect x="190" y="40" width="10" height="60" class="pixel"/>
    
    <!-- Bottom outlines - more curved like reference -->
    <rect x="50" y="100" width="10" height="10" class="pixel"/>
    <rect x="180" y="100" width="10" height="10" class="pixel"/>
    <rect x="60" y="110" width="10" height="10" class="pixel"/>
    <rect x="170" y="110" width="10" height="10" class="pixel"/>
    <rect x="70" y="120" width="10" height="10" class="pixel"/>
    <rect x="160" y="120" width="10" height="10" class="pixel"/>
    
    <!-- Body outline - rounder like reference -->
    <rect x="50" y="130" width="10" height="20" class="pixel"/>
    <rect x="180" y="130" width="10" height="20" class="pixel"/>
    <rect x="60" y="150" width="10" height="10" class="pixel"/>
    <rect x="170" y="150" width="10" height="10" class="pixel"/>
    <rect x="70" y="160" width="10" height="10" class="pixel"/>
    <rect x="160" y="160" width="10" height="10" class="pixel"/>
    
    <!-- Paws -->
    <rect x="70" y="170" width="30" height="10" class="pixel"/>
    <rect x="140" y="170" width="30" height="10" class="pixel"/>
  </g>
  
  <!-- Main fox body -->
  <g fill="#F09B67">
    <!-- Head -->
    <rect x="50" y="40" width="140" height="60" class="pixel"/>
    <rect x="60" y="100" width="120" height="10" class="pixel"/>
    <rect x="70" y="110" width="100" height="10" class="pixel"/>
    <rect x="80" y="120" width="80" height="10" class="pixel"/>
    
    <!-- Body - more rounded like reference -->
    <rect x="60" y="130" width="120" height="20" class="pixel"/>
    <rect x="70" y="150" width="100" height="10" class="pixel"/>
    <rect x="80" y="160" width="80" height="10" class="pixel"/>
  </g>
  
  <!-- Inner ear color (triangle shaped) -->
  <g fill="#D9B38C">
    <rect x="55" y="20" width="10" height="10" class="pixel"/>
    <rect x="65" y="20" width="10" height="10" class="pixel"/>
    <rect x="55" y="30" width="30" height="10" class="pixel"/>
    
    <rect x="145" y="20" width="10" height="10" class="pixel"/>
    <rect x="155" y="20" width="10" height="10" class="pixel"/>
    <rect x="145" y="30" width="30" height="10" class="pixel"/>
  </g>
  
  <!-- Darker shading for lower body and paws - like reference -->
  <g fill="#B66B45">
    <rect x="70" y="150" width="20" height="20" class="pixel"/>
    <rect x="150" y="150" width="20" height="20" class="pixel"/>
  </g>
  
  <!-- White face markings -->
  <g fill="#FFF8E1">
    <!-- Face -->
    <rect x="70" y="80" width="100" height="20" class="pixel"/>
    <rect x="80" y="100" width="80" height="10" class="pixel"/>
    
    <!-- Heart-shaped chest like reference -->
    <rect x="90" y="130" width="60" height="10" class="pixel"/>
    <rect x="80" y="140" width="80" height="20" class="pixel"/>
    <rect x="90" y="160" width="60" height="10" class="pixel"/>
  </g>
  
  <!-- Eyes with blink animation -->
  <g class="eyes">
    <rect x="80" y="60" width="20" height="20" class="pixel" fill="#2D1211"/>
    <rect x="140" y="60" width="20" height="20" class="pixel" fill="#2D1211"/>
    <rect x="85" y="65" width="5" height="5" class="pixel" fill="#FFFFFF"/>
    <rect x="145" y="65" width="5" height="5" class="pixel" fill="#FFFFFF"/>
  </g>
  
  <!-- Nose -->
  <rect x="105" y="90" width="30" height="10" class="pixel" fill="#2D1211"/>
  
  <!-- Tail with wagging animation - more like reference with layers -->
  <g class="tail">
    <g fill="#2D1211">
      <rect x="35" y="110" width="10" height="10" class="pixel"/>
      <rect x="25" y="120" width="10" height="10" class="pixel"/>
      <rect x="15" y="130" width="10" height="20" class="pixel"/>
      <rect x="25" y="150" width="10" height="10" class="pixel"/>
      <rect x="35" y="160" width="10" height="10" class="pixel"/>
      <rect x="45" y="170" width="10" height="10" class="pixel"/>
    </g>
    <g fill="#F09B67">
      <rect x="25" y="130" width="10" height="20" class="pixel"/>
      <rect x="35" y="120" width="10" height="40" class="pixel"/>
      <rect x="45" y="130" width="10" height="40" class="pixel"/>
    </g>
    <g fill="#B66B45">
      <rect x="35" y="140" width="10" height="20" class="pixel"/>
      <rect x="45" y="150" width="10" height="20" class="pixel"/>
    </g>
    <g fill="#FFF8E1">
      <rect x="25" y="140" width="10" height="10" class="pixel"/>
      <rect x="35" y="130" width="10" height="10" class="pixel"/>
    </g>
  </g>
</svg>
