<svg xmlns="http://www.w3.org/2000/svg" viewBox="0 0 100 110">
  <!-- Base canvas -->
  <rect width="100" height="110" fill="transparent" />
  
  <!-- Static body parts -->
  <g id="bunny-body">
    <!-- Shorter Body - pixel blocks -->
    <rect x="40" y="70" width="5" height="20" fill="#f5f0e6" />
    <rect x="45" y="70" width="5" height="20" fill="#f5f0e6" />
    <rect x="50" y="70" width="5" height="20" fill="#f5f0e6" />
    <rect x="55" y="70" width="5" height="20" fill="#f5f0e6" />
    <rect x="60" y="70" width="5" height="20" fill="#f5f0e6" />
    <!-- Right shadow -->
    <rect x="60" y="75" width="5" height="15" fill="#e6d6c6" />
    <rect x="65" y="70" width="5" height="20" fill="#e6d6c6" />
    
    <!-- Outlines -->
    <rect x="35" y="70" width="5" height="20" fill="#2a1010" />
    <rect x="40" y="90" width="30" height="5" fill="#2a1010" />
    <rect x="70" y="70" width="5" height="20" fill="#2a1010" />
    
    <!-- Head - pixel blocks -->
    <rect x="35" y="45" width="5" height="25" fill="#f5f0e6" />
    <rect x="40" y="40" width="5" height="30" fill="#f5f0e6" />
    <rect x="45" y="40" width="5" height="30" fill="#f5f0e6" />
    <rect x="50" y="40" width="5" height="30" fill="#f5f0e6" />
    <rect x="55" y="40" width="5" height="30" fill="#f5f0e6" />
    <rect x="60" y="40" width="5" height="30" fill="#f5f0e6" />
    <rect x="65" y="40" width="5" height="30" fill="#f5f0e6" />
    <rect x="70" y="45" width="5" height="25" fill="#f5f0e6" />
    
    <!-- Head outline -->
    <rect x="30" y="45" width="5" height="25" fill="#2a1010" />
    <rect x="35" y="40" width="5" height="5" fill="#2a1010" />
    <rect x="40" y="35" width="30" height="5" fill="#2a1010" />
    <rect x="70" y="40" width="5" height="5" fill="#2a1010" />
    <rect x="75" y="45" width="5" height="25" fill="#2a1010" />
    
    <!-- Eyes -->
    <rect x="45" y="50" width="10" height="15" fill="#2a1010" />
    <rect x="60" y="50" width="10" height="15" fill="#2a1010" />
    <!-- Eye shine -->
    <rect x="47" y="52" width="3" height="3" fill="white" />
    <rect x="62" y="52" width="3" height="3" fill="white" />
    
    <!-- Nose -->
    <rect x="55" y="65" width="5" height="5" fill="#2a1010" />
    
    <!-- Mouth -->
    <rect x="57" y="70" width="1" height="3" fill="#2a1010" />
    
    <!-- Cheeks -->
    <rect x="40" y="62" width="5" height="5" fill="#ecbfb3" opacity="0.7" />
    <rect x="70" y="62" width="5" height="5" fill="#ecbfb3" opacity="0.7" />
    
    <!-- Front paws -->
    <rect x="45" y="90" width="10" height="5" fill="#f5f0e6" />
    <rect x="45" y="95" width="10" height="5" fill="#2a1010" />
    <rect x="60" y="90" width="10" height="5" fill="#f5f0e6" />
    <rect x="60" y="95" width="10" height="5" fill="#2a1010" />
  </g>
  
  <!-- Left Ear - Animated -->
  <g id="left-ear">
    <animateTransform 
      attributeName="transform"
      type="rotate"
      from="0 40 40" 
      to="5 40 40"
      dur="0.8s"
      repeatCount="indefinite"
      values="0 40 40; 5 40 40; 0 40 40; -2 40 40; 0 40 40"
      keyTimes="0; 0.25; 0.5; 0.75; 1"
    />
    <!-- Left ear pixels -->
    <rect x="30" y="10" width="5" height="5" fill="#2a1010" />
    <rect x="35" y="5" width="10" height="5" fill="#2a1010" />
    <rect x="45" y="10" width="5" height="5" fill="#2a1010" />
    <rect x="50" y="15" width="5" height="10" fill="#2a1010" />
    <rect x="45" y="25" width="5" height="5" fill="#2a1010" />
    <rect x="40" y="30" width="5" height="5" fill="#2a1010" />
    <rect x="25" y="15" width="5" height="10" fill="#2a1010" />
    <rect x="30" y="25" width="5" height="5" fill="#2a1010" />
    <rect x="35" y="30" width="5" height="5" fill="#2a1010" />
    
    <!-- Left ear fill -->
    <rect x="35" y="10" width="10" height="20" fill="#f5f0e6" />
    <rect x="30" y="15" width="5" height="10" fill="#f5f0e6" />
    <rect x="45" y="15" width="5" height="10" fill="#f5f0e6" />
    <rect x="35" y="30" width="5" height="5" fill="#f5f0e6" />
    
    <!-- Left ear inner -->
    <rect x="40" y="15" width="5" height="15" fill="#ecbfb3" />
  </g>
  
  <!-- Right Ear - Animated -->
  <g id="right-ear">
    <animateTransform 
      attributeName="transform"
      type="rotate"
      from="0 65 40" 
      to="-5 65 40"
      dur="0.9s"
      repeatCount="indefinite"
      values="0 65 40; -3 65 40; 0 65 40; 5 65 40; 0 65 40"
      keyTimes="0; 0.25; 0.5; 0.75; 1"
    />
    <!-- Right ear pixels -->
    <rect x="70" y="10" width="5" height="5" fill="#2a1010" />
    <rect x="60" y="5" width="10" height="5" fill="#2a1010" />
    <rect x="55" y="10" width="5" height="5" fill="#2a1010" />
    <rect x="50" y="15" width="5" height="10" fill="#2a1010" />
    <rect x="55" y="25" width="5" height="5" fill="#2a1010" />
    <rect x="60" y="30" width="5" height="5" fill="#2a1010" />
    <rect x="75" y="15" width="5" height="10" fill="#2a1010" />
    <rect x="70" y="25" width="5" height="5" fill="#2a1010" />
    <rect x="65" y="30" width="5" height="5" fill="#2a1010" />
    
    <!-- Right ear fill -->
    <rect x="60" y="10" width="10" height="20" fill="#f5f0e6" />
    <rect x="55" y="15" width="5" height="10" fill="#f5f0e6" />
    <rect x="70" y="15" width="5" height="10" fill="#f5f0e6" />
    <rect x="65" y="30" width="5" height="5" fill="#f5f0e6" />
    
    <!-- Right ear inner -->
    <rect x="60" y="15" width="5" height="15" fill="#ecbfb3" />
  </g>
</svg>
